<svg width="512" height="512" xmlns="http://www.w3.org/2000/svg">

 <g>
  <title>background</title>
  <rect fill="none" id="canvas_background" height="402" width="582" y="-1" x="-1"/>
 </g>
 <g>
  <title>Layer 1</title>
  <path id="svg_1" fill="#03a9f4" d="m461.303,183.143c4.526,-13.892 6.811,-28.358 6.811,-43.191c-0.001,-77.17 -62.782,-139.952 -139.953,-139.952c-46.676,0 -89.917,23.209 -115.824,61.374c-3.291,-0.969 -6.616,-1.787 -9.97,-2.483c-0.264,-0.055 -0.531,-0.106 -0.795,-0.158c-1.738,-0.349 -3.484,-0.663 -5.237,-0.938c-0.253,-0.04 -0.506,-0.085 -0.759,-0.123c-1.962,-0.296 -3.933,-0.55 -5.913,-0.754c-0.228,-0.024 -0.459,-0.04 -0.688,-0.062c-1.698,-0.164 -3.403,-0.293 -5.112,-0.391c-0.489,-0.028 -0.976,-0.055 -1.466,-0.077c-1.943,-0.089 -3.89,-0.149 -5.848,-0.149c-69.899,0 -126.767,56.868 -126.767,126.767c0,0.196 0,0.392 0.002,0.588c-29.822,15.32 -49.156,46.317 -49.156,80.475c0,49.872 40.574,90.445 90.445,90.445l54.224,0c8.734,0 15.813,-7.08 15.813,-15.813c0,-8.734 -7.08,-15.813 -15.813,-15.813l-54.223,0c-32.433,0 -58.819,-26.386 -58.819,-58.819c0,-24.852 15.734,-47.131 39.154,-55.441c6.836,-2.426 11.147,-9.191 10.454,-16.411c-0.3,-3.141 -0.454,-6.24 -0.454,-9.211c0,-52.46 42.68,-95.14 95.14,-95.14c1.621,0 3.231,0.043 4.831,0.123c0.318,0.016 0.633,0.051 0.949,0.07c1.294,0.077 2.585,0.166 3.865,0.294c0.261,0.027 0.52,0.068 0.78,0.096c1.335,0.145 2.665,0.307 3.982,0.508c0.195,0.03 0.387,0.07 0.582,0.101c1.377,0.218 2.748,0.457 4.105,0.735c0.153,0.032 0.305,0.071 0.459,0.103c1.392,0.293 2.775,0.607 4.145,0.958c0.134,0.035 0.267,0.076 0.4,0.111c1.385,0.362 2.759,0.75 4.119,1.172c0.111,0.035 0.22,0.074 0.33,0.109c1.385,0.436 2.761,0.898 4.119,1.396c0.032,0.011 0.062,0.025 0.092,0.036c36.369,13.38 62.382,48.371 62.382,89.326c0,8.734 7.08,15.813 15.813,15.813c8.734,0 15.813,-7.08 15.813,-15.813c0,-46.006 -24.639,-86.359 -61.409,-108.575c20.317,-26.727 52.094,-42.802 86.255,-42.802c59.73,0 108.326,48.594 108.326,108.326c0,15.865 -3.375,31.182 -10.032,45.528c-1.958,4.217 -1.959,9.082 -0.005,13.301s5.664,7.364 10.147,8.599c25.404,7.004 43.148,30.316 43.148,56.692c0,32.433 -26.386,58.819 -58.819,58.819l-51.588,0c-8.734,0 -15.813,7.08 -15.813,15.813c0,8.734 7.08,15.813 15.813,15.813l51.588,0c49.872,0 90.445,-40.574 90.445,-90.445c0,-34.643 -19.911,-65.849 -50.068,-80.93z"/>
  <path id="svg_2" fill="#03a9f4" d="m303.438,365.954c0,26.201 -21.239,47.44 -47.44,47.44s-47.44,-21.239 -47.44,-47.44c0,-47.44 47.44,-76.958 47.44,-76.958s47.44,29.518 47.44,76.958z"/>
  <path id="svg_3" fill="#03a9f4" d="m255.999,429.205c-34.878,0 -63.253,-28.375 -63.253,-63.253c0,-55.585 52.657,-88.989 54.899,-90.384c5.116,-3.183 11.593,-3.183 16.708,0c2.241,1.395 54.899,34.799 54.899,90.384c-0.001,34.879 -28.374,63.253 -63.253,63.253zm0.041,-120.521c-11.714,9.788 -31.668,30.404 -31.668,57.268c0,17.439 14.188,31.626 31.627,31.626c17.439,0 31.627,-14.188 31.627,-31.626c-0.002,-27.066 -19.859,-47.539 -31.586,-57.268z"/>
  <path id="svg_4" fill="#03a9f4" d="m428.968,461.398c0,19.213 -15.576,34.789 -34.789,34.789s-34.789,-15.576 -34.789,-34.789c0,-34.789 34.789,-56.436 34.789,-56.436s34.789,21.646 34.789,56.436z"/>
  <path id="svg_5" fill="#03a9f4" d="m394.179,512c-27.902,0 -50.602,-22.7 -50.602,-50.602c0,-43.078 40.523,-68.789 42.248,-69.863c5.114,-3.183 11.594,-3.183 16.708,0c1.725,1.074 42.248,26.784 42.248,69.863c0,27.902 -22.7,50.602 -50.602,50.602zm-0.002,-86.986c-8.038,7.334 -18.974,20.274 -18.974,36.383c0,10.464 8.512,18.976 18.976,18.976c10.464,0 18.976,-8.512 18.976,-18.976c0,-16.102 -10.927,-29.037 -18.978,-36.383z"/>
  <path id="svg_6" fill="#03a9f4" d="m152.607,461.398c0,19.213 -15.576,34.789 -34.789,34.789s-34.789,-15.576 -34.789,-34.789c0,-34.789 34.789,-56.436 34.789,-56.436s34.789,21.646 34.789,56.436z"/>
  <path id="svg_7" fill="#03a9f4" d="m117.818,512c-27.902,0 -50.602,-22.7 -50.602,-50.602c0,-43.078 40.523,-68.789 42.248,-69.863c5.114,-3.183 11.594,-3.183 16.708,0c1.725,1.074 42.248,26.784 42.248,69.863c0.002,27.902 -22.699,50.602 -50.602,50.602zm-0.002,-86.986c-8.038,7.334 -18.974,20.274 -18.974,36.383c0,10.464 8.512,18.976 18.976,18.976s18.976,-8.512 18.976,-18.976c0.001,-16.102 -10.927,-29.037 -18.978,-36.383z"/>
  <g id="svg_8"/>
  <g id="svg_9"/>
  <g id="svg_10"/>
  <g id="svg_11"/>
  <g id="svg_12"/>
  <g id="svg_13"/>
  <g id="svg_14"/>
  <g id="svg_15"/>
  <g id="svg_16"/>
  <g id="svg_17"/>
  <g id="svg_18"/>
  <g id="svg_19"/>
  <g id="svg_20"/>
  <g id="svg_21"/>
  <g id="svg_22"/>
 </g>
</svg>