<svg width="512" height="512" xmlns="http://www.w3.org/2000/svg">

 <g>
  <title>background</title>
  <rect fill="none" id="canvas_background" height="402" width="582" y="-1" x="-1"/>
 </g>
 <g>
  <title>Layer 1</title>
  <g id="svg_1">
   <path id="svg_2" fill="#fee187" d="m188.515,53.994l-8.693,0l0,-8.693c0,-8.085 -6.557,-14.642 -14.642,-14.642s-14.642,6.557 -14.642,14.642l0,8.693l-8.693,0c-8.085,0 -14.642,6.557 -14.642,14.642s6.557,14.642 14.642,14.642l8.693,0l0,8.693c0,8.085 6.557,14.642 14.642,14.642s14.642,-6.557 14.642,-14.642l0,-8.693l8.693,0c8.085,0 14.642,-6.557 14.642,-14.642s-6.555,-14.642 -14.642,-14.642z"/>
   <path id="svg_3" fill="#fee187" d="m61.312,91.137l-8.693,0l0,-8.693c0,-8.085 -6.557,-14.642 -14.642,-14.642s-14.642,6.557 -14.642,14.642l0,8.693l-8.692,0c-8.086,0 -14.643,6.557 -14.643,14.643s6.557,14.642 14.642,14.642l8.693,0l0,8.693c0,8.085 6.557,14.642 14.642,14.642s14.643,-6.557 14.643,-14.642l0,-8.693l8.693,0c8.085,0 14.642,-6.557 14.642,-14.642s-6.556,-14.643 -14.643,-14.643z"/>
  </g>
  <polygon id="svg_4" fill="#FEE187" points="56.308,286.224 66.354,227.652 23.8,186.172 82.609,177.626 108.909,124.336 135.21,177.626   194.019,186.172 151.464,227.652 161.51,286.224 108.909,258.569 "/>
  <g id="svg_5">
   <path id="svg_6" fill="#d156f7" d="m298.325,53.994c-22.966,0 -45.57,3.628 -67.185,10.781c-7.677,2.54 -11.841,10.824 -9.301,18.501c2.539,7.68 10.832,11.846 18.501,9.301c18.641,-6.169 38.15,-9.298 57.985,-9.298c101.673,0 184.39,82.716 184.39,184.389s-82.717,184.39 -184.39,184.39c-98.235,0 -178.766,-77.222 -184.099,-174.15l40.47,21.277c2.142,1.126 4.482,1.681 6.812,1.681c3.035,0 6.058,-0.944 8.608,-2.797c4.508,-3.275 6.768,-8.826 5.826,-14.32l-8.746,-50.984l37.044,-36.106c3.991,-3.89 5.426,-9.709 3.704,-15.01c-1.723,-5.301 -6.305,-9.165 -11.821,-9.967l-51.191,-7.437l-22.892,-46.39c-2.467,-4.997 -7.557,-8.162 -13.131,-8.162s-10.664,3.164 -13.131,8.162l-22.893,46.388l-51.191,7.437c-5.517,0.802 -10.097,4.666 -11.821,9.967c-1.722,5.301 -0.286,11.119 3.704,15.01l37.044,36.106l-8.746,50.984c-0.943,5.494 1.316,11.045 5.826,14.32c4.51,3.278 10.488,3.706 15.42,1.116l22.448,-11.802c9.985,108.612 101.582,193.959 212.755,193.959c117.822,0.001 213.676,-95.853 213.676,-213.674s-95.854,-213.672 -213.675,-213.672zm-221.749,163.171l-21.31,-20.772l29.447,-4.278c4.77,-0.694 8.892,-3.69 11.026,-8.011l13.169,-26.686l13.169,26.686c2.133,4.321 6.255,7.317 11.026,8.011l29.447,4.278l-21.31,20.772c-3.45,3.365 -5.025,8.21 -4.211,12.961l5.033,29.33l-26.34,-13.847c-2.133,-1.122 -4.473,-1.681 -6.813,-1.681s-4.68,0.561 -6.813,1.681l-26.34,13.847l5.033,-29.33c0.811,-4.75 -0.763,-9.596 -4.213,-12.961z"/>
   <path id="svg_7" fill="#c70fff" d="m343.622,271.013c-8.085,0 -14.642,-6.557 -14.642,-14.642c0,-9.002 -7.326,-16.328 -16.328,-16.328s-16.328,7.326 -16.328,16.328c0,8.085 -6.557,14.642 -14.642,14.642s-14.642,-6.557 -14.642,-14.642c0,-25.151 20.463,-45.612 45.612,-45.612s45.612,20.463 45.612,45.612c0.001,8.086 -6.556,14.642 -14.642,14.642z"/>
   <path id="svg_8" fill="#c70fff" d="m439.108,331.836c-8.085,0 -14.642,-6.557 -14.642,-14.642c0,-9.002 -7.326,-16.328 -16.328,-16.328c-9.004,0 -16.329,7.326 -16.329,16.328c0,8.085 -6.557,14.642 -14.642,14.642s-14.642,-6.557 -14.642,-14.642c0,-25.151 20.463,-45.612 45.614,-45.612s45.612,20.463 45.612,45.612c-0.001,8.085 -6.558,14.642 -14.643,14.642z"/>
   <path id="svg_9" fill="#c70fff" d="m343.622,393.779c-8.085,0 -14.642,-6.557 -14.642,-14.642c0,-9.004 -7.326,-16.329 -16.328,-16.329s-16.328,7.326 -16.328,16.329c0,8.085 -6.557,14.642 -14.642,14.642s-14.642,-6.557 -14.642,-14.642c0,-25.153 20.463,-45.614 45.612,-45.614s45.612,20.463 45.612,45.614c0.001,8.085 -6.556,14.642 -14.642,14.642z"/>
  </g>
  <g id="svg_10"/>
  <g id="svg_11"/>
  <g id="svg_12"/>
  <g id="svg_13"/>
  <g id="svg_14"/>
  <g id="svg_15"/>
  <g id="svg_16"/>
  <g id="svg_17"/>
  <g id="svg_18"/>
  <g id="svg_19"/>
  <g id="svg_20"/>
  <g id="svg_21"/>
  <g id="svg_22"/>
  <g id="svg_23"/>
  <g id="svg_24"/>
 </g>
</svg>