<svg width="511.996" height="511.996" xmlns="http://www.w3.org/2000/svg">

 <g>
  <title>background</title>
  <rect fill="none" id="canvas_background" height="402" width="582" y="-1" x="-1"/>
 </g>
 <g>
  <title>Layer 1</title>
  <path id="svg_1" fill="#FEE187" d="m330.08,267.413l-93.758,0l-55.104,91.322l40.588,0l-31.221,124.946l140.197,-158.768l-41.265,0l40.563,-57.5z"/>
  <g id="svg_2">
   <path id="svg_3" fill="#03a9f4" d="m190.579,499.533c-2.508,0 -5.036,-0.594 -7.371,-1.821c-6.468,-3.402 -9.773,-10.784 -8.002,-17.873l26.3,-105.249l-20.286,0c-5.718,0 -10.994,-3.08 -13.804,-8.059c-2.811,-4.979 -2.723,-11.087 0.231,-15.984l55.104,-91.322c2.871,-4.756 8.02,-7.661 13.574,-7.661l93.758,0c5.921,0 11.349,3.3 14.074,8.557s2.292,11.594 -1.121,16.434l-22.933,32.508l10.683,0c6.233,0 11.888,3.652 14.449,9.335c2.563,5.681 1.558,12.338 -2.566,17.009l-140.198,158.768c-3.094,3.498 -7.458,5.358 -11.892,5.358zm18.72,-156.649l12.507,0c4.881,0 9.489,2.248 12.495,6.095c3.004,3.847 4.068,8.865 2.885,13.6l-15.467,61.893l73.917,-83.708l-6.119,0c-5.921,0 -11.349,-3.3 -14.074,-8.557c-2.725,-5.257 -2.292,-11.594 1.121,-16.434l22.933,-32.508l-54.226,0l-35.972,59.619z"/>
   <path id="svg_4" fill="#03a9f4" d="m461.81,196.058c4.535,-13.926 6.828,-28.428 6.828,-43.299c0,-77.36 -62.937,-140.297 -140.297,-140.297c-46.791,0 -90.137,23.266 -116.108,61.526c-3.305,-0.975 -6.647,-1.794 -10.015,-2.494c-0.246,-0.051 -0.495,-0.098 -0.74,-0.147c-1.764,-0.355 -3.535,-0.672 -5.315,-0.951c-0.239,-0.038 -0.479,-0.081 -0.718,-0.116c-1.975,-0.298 -3.957,-0.553 -5.949,-0.758c-0.22,-0.022 -0.442,-0.038 -0.663,-0.059c-1.71,-0.166 -3.426,-0.295 -5.147,-0.393c-0.488,-0.029 -0.976,-0.055 -1.466,-0.078c-1.948,-0.089 -3.901,-0.149 -5.862,-0.149c-70.072,0 -127.079,57.008 -127.079,127.079c0,0.197 0,0.393 0.002,0.59c-29.898,15.357 -49.281,46.43 -49.281,80.672c0,49.995 40.672,90.668 90.667,90.668l22.632,0c8.754,0 15.852,-7.097 15.852,-15.852s-7.099,-15.852 -15.852,-15.852l-22.632,0c-32.513,0 -58.962,-26.451 -58.962,-58.964c0,-24.913 15.773,-47.249 39.25,-55.578c6.853,-2.432 11.173,-9.213 10.478,-16.451c-0.3,-3.144 -0.453,-6.251 -0.453,-9.234c0,-52.59 42.785,-95.375 95.375,-95.375c1.625,0 3.239,0.043 4.844,0.124c0.311,0.016 0.618,0.049 0.927,0.068c1.306,0.078 2.609,0.166 3.901,0.298c0.241,0.024 0.479,0.062 0.72,0.089c1.36,0.147 2.715,0.312 4.058,0.517c0.163,0.025 0.323,0.059 0.485,0.084c1.416,0.224 2.823,0.469 4.218,0.755c0.114,0.024 0.228,0.054 0.342,0.078c1.436,0.3 2.863,0.626 4.275,0.989c0.09,0.024 0.178,0.051 0.268,0.075c1.433,0.374 2.857,0.775 4.263,1.213c0.067,0.021 0.133,0.046 0.2,0.067c38.71,12.149 66.871,48.356 66.871,91.02c0,8.755 7.099,15.852 15.852,15.852s15.852,-7.097 15.852,-15.852c0,-46.119 -24.699,-86.572 -61.561,-108.843c20.367,-26.797 52.222,-42.912 86.468,-42.912c59.877,0 108.592,48.714 108.592,108.592c0,15.906 -3.384,31.261 -10.057,45.639c-1.963,4.228 -1.964,9.106 -0.006,13.335c1.958,4.229 5.678,7.382 10.171,8.62c25.467,7.021 43.254,30.39 43.254,56.832c0,32.513 -26.453,58.964 -58.964,58.964l-35.851,0c-8.754,0 -15.852,7.097 -15.852,15.852s7.099,15.852 15.852,15.852l35.851,0c49.995,0 90.668,-40.674 90.668,-90.668c0.004,-34.729 -19.952,-66.012 -50.186,-81.128z"/>
   <path id="svg_5" fill="#03a9f4" d="m323.339,453.006c-3.728,0 -7.473,-1.308 -10.486,-3.969c-6.563,-5.796 -7.184,-15.813 -1.39,-22.375l28.293,-32.041c5.794,-6.563 15.813,-7.187 22.375,-1.39c6.563,5.796 7.184,15.813 1.39,22.375l-28.293,32.041c-3.133,3.549 -7.501,5.359 -11.889,5.359z"/>
   <path id="svg_6" fill="#03a9f4" d="m104.907,453.006c-3.73,0 -7.473,-1.308 -10.486,-3.969c-6.563,-5.794 -7.184,-15.813 -1.39,-22.375l28.295,-32.041c5.796,-6.561 15.816,-7.184 22.375,-1.389c6.563,5.794 7.184,15.813 1.39,22.375l-28.295,32.041c-3.134,3.546 -7.501,5.358 -11.889,5.358z"/>
  </g>
  <g id="svg_7"/>
  <g id="svg_8"/>
  <g id="svg_9"/>
  <g id="svg_10"/>
  <g id="svg_11"/>
  <g id="svg_12"/>
  <g id="svg_13"/>
  <g id="svg_14"/>
  <g id="svg_15"/>
  <g id="svg_16"/>
  <g id="svg_17"/>
  <g id="svg_18"/>
  <g id="svg_19"/>
  <g id="svg_20"/>
  <g id="svg_21"/>
 </g>
</svg>