<svg width="512" height="512" xmlns="http://www.w3.org/2000/svg">

 <g>
  <title>background</title>
  <rect fill="none" id="canvas_background" height="402" width="582" y="-1" x="-1"/>
 </g>
 <g>
  <title>Layer 1</title>
  <circle id="svg_1" fill="#8088ad" r="59.943" cy="381.47" cx="221.32"/>
  <g id="svg_2">
   <path id="svg_3" fill="#8088ad" d="m221.326,455.991c-41.09,0 -74.52,-33.43 -74.52,-74.52s33.43,-74.52 74.52,-74.52s74.52,33.43 74.52,74.52s-33.43,74.52 -74.52,74.52zm0,-119.884c-25.014,0 -45.364,20.35 -45.364,45.364s20.35,45.364 45.364,45.364s45.364,-20.35 45.364,-45.364s-20.351,-45.364 -45.364,-45.364z"/>
   <path id="svg_4" fill="#8088ad" d="m221.361,512c-1.061,0 -2.121,-0.012 -3.187,-0.038c-70.33,-1.662 -127.472,-60.279 -127.377,-130.668c0.063,-46.595 24.418,-88.796 64.149,-112.209l0,-210.229c0.002,-32.453 26.403,-58.856 58.858,-58.856l15.046,0c32.453,0 58.856,26.403 58.856,58.856c0,8.051 -6.526,14.578 -14.578,14.578s-14.578,-6.526 -14.578,-14.578c0,-16.377 -13.324,-29.701 -29.701,-29.701l-15.046,0c-16.377,0 -29.701,13.324 -29.701,29.701l0,218.884c0,5.521 -3.118,10.567 -8.054,13.037c-34.548,17.286 -56.042,51.985 -56.093,90.556c-0.073,54.666 44.297,100.191 98.911,101.482c27.549,0.63 53.593,-9.582 73.285,-28.814c19.7,-19.24 30.549,-44.998 30.549,-72.528c0,-16.546 -4.073,-32.954 -11.779,-47.455c-3.779,-7.11 -1.077,-15.936 6.032,-19.713c7.111,-3.777 15.936,-1.077 19.713,6.032c9.936,18.697 15.189,39.838 15.189,61.136c0,35.449 -13.97,68.614 -39.333,93.388c-24.598,24.019 -56.865,37.138 -91.161,37.139z"/>
   <path id="svg_5" fill="#8088ad" d="m221.326,283.228c-8.051,0 -14.578,-6.526 -14.578,-14.578l0,-117.64c0,-8.051 6.526,-14.578 14.578,-14.578c8.051,0 14.578,6.526 14.578,14.578l0,117.64c-0.001,8.052 -6.527,14.578 -14.578,14.578z"/>
   <path id="svg_6" fill="#8088ad" d="m406.627,194.304l-118.923,0l0,-30.613l64.823,0c8.051,0 14.578,-6.526 14.578,-14.578s-6.526,-14.578 -14.578,-14.578l-77.941,0c-0.249,0 -0.491,0.025 -0.736,0.038c-0.241,-0.012 -0.478,-0.036 -0.723,-0.036c-8.051,0 -14.578,6.526 -14.578,14.578l0,119.537c0,8.051 6.526,14.578 14.578,14.578c0.246,0 0.487,-0.025 0.729,-0.036c0.243,0.012 0.484,0.036 0.729,0.036l77.941,0c8.051,0 14.578,-6.526 14.578,-14.578s-6.526,-14.578 -14.578,-14.578l-64.823,0l0,-30.613l118.923,0c8.051,0 14.578,-6.526 14.578,-14.578s-6.526,-14.579 -14.577,-14.579z"/>
   <path id="svg_7" fill="#8088ad" d="m340.682,23.012c-8.787,0 -13.875,4.933 -13.875,15.416l0,40.854c0,10.483 5.088,15.416 14.03,15.416c12.334,0 13.104,-9.404 13.566,-15.416c0.464,-5.704 5.704,-7.247 11.871,-7.247c8.325,0 12.18,2.159 12.18,11.408c0,20.504 -16.649,32.22 -38.695,32.22c-20.194,0 -36.998,-9.866 -36.998,-36.383l0,-40.852c0,-26.515 16.804,-36.383 36.998,-36.383c22.046,0 38.695,11.099 38.695,30.679c0,9.25 -3.854,11.408 -12.025,11.408c-6.474,0 -11.716,-1.697 -12.025,-7.247c-0.155,-4.007 -0.617,-13.873 -13.722,-13.873z"/>
  </g>
  <g id="svg_8"/>
  <g id="svg_9"/>
  <g id="svg_10"/>
  <g id="svg_11"/>
  <g id="svg_12"/>
  <g id="svg_13"/>
  <g id="svg_14"/>
  <g id="svg_15"/>
  <g id="svg_16"/>
  <g id="svg_17"/>
  <g id="svg_18"/>
  <g id="svg_19"/>
  <g id="svg_20"/>
  <g id="svg_21"/>
  <g id="svg_22"/>
 </g>
</svg>