<svg width="512" height="512" xmlns="http://www.w3.org/2000/svg">

 <g>
  <title>background</title>
  <rect fill="none" id="canvas_background" height="402" width="582" y="-1" x="-1"/>
 </g>
 <g>
  <title>Layer 1</title>
  <path id="svg_1" fill="#6f717e" d="m86.814,305.815l-72.231,0c-8.053,0 -14.583,-6.529 -14.583,-14.583s6.53,-14.583 14.583,-14.583l72.231,0c8.053,0 14.583,6.529 14.583,14.583s-6.529,14.583 -14.583,14.583z"/>
  <circle fill-opacity="0.5" id="svg_2" fill="#6f717e" r="69.79" cy="361.02" cx="427.62"/>
  <g id="svg_3">
   <path id="svg_4" fill="#6f717e" d="m427.626,276.648c-0.639,0 -1.272,0.034 -1.908,0.048c-0.318,-0.02 -0.634,-0.048 -0.958,-0.048l-276.689,0c-8.053,0 -14.583,6.529 -14.583,14.583s6.53,14.583 14.583,14.583l215.833,0c-12.848,14.809 -20.65,34.107 -20.65,55.206c0,46.523 37.849,84.373 84.371,84.373c46.523,0 84.373,-37.849 84.373,-84.373s-37.847,-84.372 -84.372,-84.372zm0,139.58c-30.441,0 -55.205,-24.765 -55.205,-55.206s24.764,-55.206 55.205,-55.206s55.206,24.765 55.206,55.206s-24.765,55.206 -55.206,55.206z"/>
   <path id="svg_5" fill="#6f717e" d="m426.809,247.1l-348.264,0c-8.053,0 -14.583,-6.529 -14.583,-14.583s6.53,-14.583 14.583,-14.583l348.264,0c30.893,0 56.024,-25.131 56.024,-56.024s-25.131,-56.024 -56.024,-56.024c-30.892,0 -56.023,25.131 -56.023,56.024c0,8.054 -6.53,14.583 -14.583,14.583s-14.583,-6.529 -14.583,-14.583c0,-46.974 38.215,-85.191 85.189,-85.191s85.191,38.216 85.191,85.19s-38.217,85.191 -85.191,85.191z"/>
   <path id="svg_6" fill="#6f717e" d="m134.959,188.981l-120.376,0c-8.053,0 -14.583,-6.529 -14.583,-14.583s6.53,-14.583 14.583,-14.583l120.376,0c8.053,0 14.583,6.529 14.583,14.583s-6.53,14.583 -14.583,14.583z"/>
   <path id="svg_7" fill="#6f717e" d="m243.693,188.981l-47.484,0c-8.053,0 -14.583,-6.529 -14.583,-14.583s6.53,-14.583 14.583,-14.583l47.484,0c19.515,0 35.394,-15.877 35.394,-35.392s-15.878,-35.392 -35.394,-35.392s-35.392,15.877 -35.392,35.392c0,8.054 -6.53,14.583 -14.583,14.583s-14.583,-6.529 -14.583,-14.583c0,-35.598 28.959,-64.559 64.559,-64.559s64.56,28.961 64.56,64.559s-28.962,64.558 -64.561,64.558z"/>
   <path id="svg_8" fill="#6f717e" d="m256.187,452.136c-32.241,0 -58.471,-26.229 -58.471,-58.471c0,-8.054 6.53,-14.583 14.583,-14.583s14.583,6.529 14.583,14.583c0,16.158 13.147,29.305 29.305,29.305s29.305,-13.147 29.305,-29.305s-13.147,-29.305 -29.305,-29.305l-177.642,0c-8.053,0 -14.583,-6.529 -14.583,-14.583s6.53,-14.583 14.583,-14.583l177.641,0c32.241,0 58.471,26.229 58.471,58.471s-26.23,58.471 -58.47,58.471z"/>
  </g>
  <g id="svg_9"/>
  <g id="svg_10"/>
  <g id="svg_11"/>
  <g id="svg_12"/>
  <g id="svg_13"/>
  <g id="svg_14"/>
  <g id="svg_15"/>
  <g id="svg_16"/>
  <g id="svg_17"/>
  <g id="svg_18"/>
  <g id="svg_19"/>
  <g id="svg_20"/>
  <g id="svg_21"/>
  <g id="svg_22"/>
  <g id="svg_23"/>
 </g>
</svg>